# xmcd
#
# Track frame offsets: 
#        150
#        28283
#        48234
#        70614
#        88341
#        109324
#        128647
#        151167
#        167646
#        191613
#
# Disc length: 2797 seconds
#
# Revision: 0
# Processed by: cddbd v1.5.2PL0 Copyright (c) Steve Scherf et al.
# Submitted via: ExactAudioCopy v1.0b3
#
DISCID=810aeb0a
DTITLE=Che Linh, Thanh Tuyen - Sau Lan Hen Cuoi
DYEAR=1995
DGENRE=
TTITLE0=De toc nang ngu yen
TTITLE1=Che Linh - Dung goi ten anh
TTITLE2=Thanh Tuyen - Ru nua vang trang
TTITLE3=Che Linh - Sau lan hen cuoi
TTITLE4=Thanh Tuyen - Nhanh cay trung ca
TTITLE5=Mai lo minh xa nhau
TTITLE6=Che Linh - Thuyen xa ben do
TTITLE7=Thanh Tuyen - Chieu he tren bai bien
TTITLE8=Che Linh - Biet dau tim
TTITLE9=Thanh Tuyen - Tra nhau ngay thang cu
EXTD=
EXTT0=
EXTT1=
EXTT2=
EXTT3=
EXTT4=
EXTT5=
EXTT6=
EXTT7=
EXTT8=
EXTT9=
PLAYORDER=
